<?xml version="1.0" encoding="utf-8"?>
<!-- Generator: Adobe Illustrator 22.1.0, SVG Export Plug-In . SVG Version: 6.00 Build 0)  -->
<svg version="1.1" id="Calque_1" xmlns="http://www.w3.org/2000/svg" xmlns:xlink="http://www.w3.org/1999/xlink" x="0px" y="0px"
	 viewBox="0 0 1920 200" style="enable-background:new 0 0 1920 200;" xml:space="preserve">
<style type="text/css">
	.st0{fill:none;stroke:#EAEAEA;stroke-miterlimit:10;}
	.st1{fill:#EAEAEA;}
	.st2{fill:#95AEDB;}
	.st3{fill:#FFFFFF;stroke:#EAEAEA;stroke-miterlimit:10;}
	.st4{fill:none;stroke:#EAEAEA;stroke-width:0.5;stroke-miterlimit:10;}
	.st5{fill:#FFFFFF;}
	.st6{fill:none;stroke:#EAEAEA;stroke-width:1.5;stroke-miterlimit:10;}
	.st7{fill:#FFFFFF;stroke:#95AEDB;stroke-miterlimit:10;}
	.st8{fill:none;stroke:#95AEDB;stroke-miterlimit:10;}
</style>
<g id="Calque_3">
	<g>
		<path class="st0" d="M570.1,66.3c0,0.2,0,0.3,0,0.5c-0.1,2.4-0.9,5.8-2.2,9.8c-2.4,7.3-6.5,16.4-10.6,24.4l-20.6,0.3
			c-4.5-6.6-9-16.7-11.1-24c-1.7-5.9-2.5-10.3-2.5-10.3c-0.2-13,10.2-23.6,23.2-23.8S569.9,53.3,570.1,66.3z"/>
		<path class="st1" d="M542,113.3l10.3-0.1c0,0-1.4,3.7-5.1,3.7C543.5,117,542,113.3,542,113.3z"/>
		<g>
			<path class="st1" d="M555.2,111c0,0.8-0.6,1.5-1.4,1.5l-13.3,0.2c-0.8,0-1.4-0.6-1.4-1.5c0-0.8,0.6-1.5,1.4-1.5l13.3-0.2
				C554.6,109.5,555.2,110.2,555.2,111z"/>
		</g>
		<g>
			<path class="st1" d="M557.4,106.5c0,0.8-0.8,1.5-1.8,1.5l-17,0.2c-1,0-1.8-0.6-1.8-1.4s0.8-1.5,1.8-1.5l17-0.2
				C556.5,105.1,557.4,105.7,557.4,106.5z"/>
		</g>
		<path class="st2" d="M546.8,35.6h-2.2c-0.1,0-0.2-0.1-0.2-0.2l-0.1-7.4c0-0.1,0.1-0.2,0.2-0.2h2.2c0.1,0,0.2,0.1,0.2,0.2l0.1,7.4
			C547,35.5,546.9,35.6,546.8,35.6z"/>
		<g>
			<path class="st2" d="M536.1,36.8l-1.9,1.1c-0.1,0.1-0.2,0-0.3-0.1l-3.8-6.3c-0.1-0.1,0-0.2,0.1-0.3l1.9-1.1
				c0.1-0.1,0.2,0,0.3,0.1l3.8,6.3C536.2,36.6,536.2,36.7,536.1,36.8z"/>
			<path class="st2" d="M557.3,37.6l-1.9-1.1c-0.1-0.1-0.1-0.2-0.1-0.3l3.6-6.4c0.1-0.1,0.2-0.1,0.3-0.1l1.9,1.1
				c0.1,0.1,0.1,0.2,0.1,0.3l-3.6,6.4C557.6,37.6,557.4,37.7,557.3,37.6z"/>
		</g>
		<g>
			<path class="st2" d="M528.2,40.8l-1.5,1.5c-0.1,0.1-0.2,0.1-0.3,0l-5.3-5.1c-0.1-0.1-0.1-0.2,0-0.3l1.5-1.5
				c0.1-0.1,0.2-0.1,0.3,0l5.3,5.1C528.2,40.5,528.2,40.7,528.2,40.8z"/>
			<path class="st2" d="M565,41.8l-1.5-1.5c-0.1-0.1-0.1-0.2,0-0.3l5.1-5.3c0.1-0.1,0.2-0.1,0.3,0l1.5,1.5c0.1,0.1,0.1,0.2,0,0.3
				l-5.1,5.3C565.2,41.9,565.1,41.9,565,41.8z"/>
		</g>
	</g>
	<g>
		<g>
			<path class="st3" d="M307.4,137.9l0.5,0.5l1.7,1.6H299l1.8-1.6l0.6-0.5"/>
			<path class="st1" d="M313.3,121.3h-17.9c-2.1,0-3.7,1.7-3.7,3.7v9.7c0,2.1,1.7,3.7,3.7,3.7h17.9c2.1,0,3.7-1.7,3.7-3.7V125
				C317,122.9,315.3,121.3,313.3,121.3z M315.8,135.2c0,1.3-1.1,2.4-2.4,2.4h-18.1c-1.3,0-2.4-1.1-2.4-2.4v-10.8
				c0-1.3,1.1-2.4,2.4-2.4h18.1c1.3,0,2.4,1.1,2.4,2.4V135.2z"/>
		</g>
		<g>
			<path class="st3" d="M272.7,188.6l0.5,0.5l1.7,1.6h-10.6l1.8-1.6l0.6-0.5"/>
			<path class="st1" d="M278.6,171.9h-17.9c-2.1,0-3.7,1.7-3.7,3.7v9.7c0,2.1,1.7,3.7,3.7,3.7h17.9c2.1,0,3.7-1.7,3.7-3.7v-9.7
				C282.3,173.6,280.6,171.9,278.6,171.9z M281.1,185.9c0,1.3-1.1,2.4-2.4,2.4h-18.1c-1.3,0-2.4-1.1-2.4-2.4v-10.8
				c0-1.3,1.1-2.4,2.4-2.4h18.1c1.3,0,2.4,1.1,2.4,2.4V185.9z"/>
		</g>
		<g>
			<path class="st3" d="M343.4,188.6l0.5,0.5l1.7,1.6H335l1.8-1.6l0.6-0.5"/>
			<path class="st1" d="M349.3,171.9h-17.9c-2.1,0-3.7,1.7-3.7,3.7v9.7c0,2.1,1.7,3.7,3.7,3.7h17.9c2.1,0,3.7-1.7,3.7-3.7v-9.7
				C353,173.6,351.3,171.9,349.3,171.9z M351.8,185.9c0,1.3-1.1,2.4-2.4,2.4h-18.1c-1.3,0-2.4-1.1-2.4-2.4v-10.8
				c0-1.3,1.1-2.4,2.4-2.4h18.1c1.3,0,2.4,1.1,2.4,2.4V185.9z"/>
		</g>
		<g>
			<line class="st4" x1="275.7" y1="164.7" x2="333" y2="164.7"/>
			<line class="st4" x1="304.3" y1="164.7" x2="304.3" y2="147.3"/>
		</g>
		<rect x="257.3" y="162" class="st2" width="24.7" height="5.3"/>
		<rect x="328" y="162" class="st2" width="24.7" height="5.3"/>
		<rect x="292" y="144" class="st2" width="24.7" height="5.3"/>
	</g>
	<g>
		<path class="st2" d="M742.7,120.4l3.1-40.7h7.4l5.4,14.9c1,2.5,1.9,5.2,2.9,8.1c1,2.8,1.7,5,2.2,6.6l0.8,2.4
			c1.9-5.5,3.9-11.2,6.1-17l5.7-14.9h7.4l3.7,40.7h-6.2l-1.5-16l-1.3-16.3c-1.8,5.1-3.8,10.6-5.9,16.3l-5.7,15.2H762l-5.5-15.2
			L751,88.4c0,1.8-0.3,7.1-1,16.1l-1.2,16L742.7,120.4L742.7,120.4z"/>
		<path class="st2" d="M801.9,115.2h17.3v5.2h-23.5V79.7h23.2v5.2h-17v12.6h15v5.2h-15V115.2z"/>
		<path class="st2" d="M826.8,79.7h12.7c6,0,11,1.9,14.9,5.6s5.8,8.5,5.8,14.3c0,6-1.8,11-5.5,14.9c-3.6,3.9-8.7,5.9-15.1,5.9h-12.8
			L826.8,79.7L826.8,79.7z M833.1,115.1h6.4c4.6,0,8.2-1.5,10.6-4.4c2.4-2.9,3.6-6.6,3.6-11.2c0-4.2-1.3-7.7-3.9-10.5
			c-2.6-2.8-6.1-4.2-10.5-4.2h-6.2L833.1,115.1L833.1,115.1z"/>
		<path class="st2" d="M867.6,120.4V79.7h6.2v40.7C873.8,120.4,867.6,120.4,867.6,120.4z"/>
		<path class="st2" d="M910,120.4l-3.2-10h-16.4l-3.3,10h-6.6l14.1-40.7h8.2l13.9,40.7C916.7,120.4,910,120.4,910,120.4z M892,105.2
			h13.1l-0.7-2.1c-1.5-4.8-2.8-8.7-3.7-11.8c-1-3.1-1.6-5.1-1.8-5.8l-0.3-1.1c-0.4,1.9-2.4,8.2-5.9,18.8L892,105.2z"/>
		<path class="st2" d="M922.4,120.4l3.1-40.7h7.4l5.4,14.9c1,2.5,1.9,5.2,2.9,8.1c1,2.8,1.7,5,2.2,6.6l0.8,2.4
			c1.9-5.5,3.9-11.2,6.1-17l5.7-14.9h7.4l3.7,40.7h-6.2l-1.5-16l-1.3-16.3c-1.8,5.1-3.8,10.6-5.9,16.3l-5.7,15.2h-4.9l-5.5-15.2
			l-5.5-16.1c0,1.8-0.3,7.1-1,16.1l-1.2,16L922.4,120.4L922.4,120.4z"/>
		<path class="st2" d="M1002.3,120.4l-3.2-10h-16.4l-3.3,10h-6.6l14.1-40.7h8.2l13.9,40.7C1009,120.4,1002.3,120.4,1002.3,120.4z
			 M984.4,105.2h13.1l-0.7-2.1c-1.5-4.8-2.8-8.7-3.7-11.8c-1-3.1-1.6-5.1-1.8-5.8l-0.3-1.1c-0.4,1.9-2.4,8.2-5.9,18.8L984.4,105.2z"
			/>
		<path class="st2" d="M1039.7,79.7v5.2H1029v35.5h-6.2V84.9h-10.6v-5.2C1012.2,79.7,1039.7,79.7,1039.7,79.7z"/>
		<path class="st2" d="M1046,120.4V79.7h6.2v40.7C1052.2,120.4,1046,120.4,1046,120.4z"/>
		<path class="st2" d="M1090.9,81.4v6.1c-1.8-1-3.4-1.6-4.8-2s-3.3-0.6-5.5-0.6c-4.1,0-7.5,1.4-10.2,4.1s-4.1,6.4-4.1,11
			s1.3,8.3,4,11.1c2.7,2.7,6.3,4.1,10.7,4.1c3.9,0,7.2-1,9.9-3v6.3c-2.5,1.7-6,2.5-10.4,2.5c-6.1,0-11.1-1.9-14.9-5.7
			c-3.9-3.8-5.8-8.9-5.8-15.2c0-6.2,1.9-11.2,5.8-15c3.9-3.9,8.8-5.8,14.8-5.8C1084.8,79.1,1088.3,79.9,1090.9,81.4z"/>
		<path class="st2" d="M1098.5,120.4V79.7h6.2v40.7C1104.7,120.4,1098.5,120.4,1098.5,120.4z"/>
		<path class="st2" d="M1120.2,115.2h17.3v5.2H1114V79.7h23.2v5.2h-17v12.6h15v5.2h-15V115.2z"/>
		<path class="st2" d="M1145,120.4V79.7h7.4l10,17c1.9,3.2,3.5,6.1,5,8.8c1.5,2.7,2.5,4.6,3.1,5.7l0.8,1.7c-0.2-3.7-0.4-9-0.4-16.1
			V79.7h6.2v40.7h-7.4l-10.1-17c-1.8-3.1-3.5-6-5-8.7s-2.6-4.7-3.2-5.9l-0.9-1.8c0.3,4,0.5,9.4,0.5,16.3v17h-6V120.4z"/>
	</g>
</g>
<g id="Calque_1_1_">
	<path class="st5" d="M64.7,150.7c0,1.3-1.1,2.4-2.4,2.4H43.7c-1.3,0-2.4-1.1-2.4-2.4v-11c0-1.3,1.1-2.4,2.4-2.4h18.6
		c1.3,0,2.4,1.1,2.4,2.4C64.7,139.7,64.7,150.7,64.7,150.7z M56.1,153.5h7.1c1,0,1.8-0.8,1.8-1.8v-12.8c0-1-0.8-1.8-1.8-1.8H42.9
		c-1,0-1.8,0.8-1.8,1.8v12.8c0,1,0.8,1.8,1.8,1.8H50H56.1z"/>
	<g>
		<path class="st1" d="M13.2,133l19-8.2v3.8l-14,6l14,6v3.8l-19-8.2C13.2,136.2,13.2,133,13.2,133z"/>
		<path class="st2" d="M39.8,144.2l11-27.1l3.4,1.1l-11,27.2L39.8,144.2z"/>
		<path class="st1" d="M56,140.7l14-6l-14-6v-3.8l19,8.2v3.2l-19,8.2V140.7z"/>
	</g>
	<g>
		<path class="st1" d="M1674,158l34.2-14.7v6.9l-25.1,10.7l25.1,10.7v6.9l-34.2-14.7V158z"/>
		<path class="st2" d="M1721.8,178l19.7-48.7l6.1,2l-19.7,48.8L1721.8,178z"/>
		<path class="st1" d="M1750.8,171.7l25.1-10.7l-25.1-10.7v-6.9L1785,158v5.8l-34.2,14.7V171.7z"/>
	</g>
	<g>
		<path class="st3" d="M65.4,88.1l1.5,1.4l4.8,4.5H42.3l5.1-4.5l1.5-1.4"/>
		<path class="st1" d="M81.7,42H32.3C26.6,42,22,46.7,22,52.3v26.8c0,5.7,4.7,10.3,10.3,10.3h49.4c5.7,0,10.3-4.7,10.3-10.3V52.3
			C92,46.7,87.4,42,81.7,42z M88.6,80.6c0,3.6-2.9,6.6-6.5,6.6H31.9c-3.6,0-6.5-3-6.5-6.6V50.9c0-3.6,2.9-6.5,6.5-6.5h50.2
			c3.6,0,6.5,2.9,6.5,6.5V80.6z"/>
	</g>
	<g>
		<path class="st3" d="M368.3,72.9l1.1,1l3.6,3.4h-21.8l3.8-3.4l1.1-1"/>
		<path class="st1" d="M380.3,38.7h-36.6c-4.2,0-7.7,3.5-7.7,7.7v19.9c0,4.2,3.5,7.7,7.7,7.7h36.6c4.2,0,7.7-3.5,7.7-7.7V46.4
			C388,42.2,384.5,38.7,380.3,38.7z M385.5,67.4c0,2.7-2.2,4.9-4.9,4.9h-37.2c-2.7,0-4.9-2.2-4.9-4.9V45.3c0-2.7,2.2-4.9,4.9-4.9
			h37.2c2.7,0,4.9,2.2,4.9,4.9V67.4z"/>
	</g>
	<g>
		<path class="st3" d="M1636.4,64.4l1.6,1.5l5.3,5h-32.8l5.6-5l1.7-1.5"/>
		<path class="st1" d="M1654.5,13h-55.1c-6.3,0-11.5,5.2-11.5,11.5v29.9c0,6.3,5.2,11.5,11.5,11.5h55.1c6.3,0,11.5-5.2,11.5-11.5
			V24.5C1666.1,18.2,1660.9,13,1654.5,13z M1662.3,56.1c0,4-3.3,7.3-7.3,7.3h-56c-4,0-7.3-3.3-7.3-7.3V22.9c0-4,3.3-7.3,7.3-7.3h56
			c4,0,7.3,3.3,7.3,7.3V56.1z"/>
	</g>
	<g>
		<path class="st1" d="M132,37.9v2.5h-2.6c-0.7,0-1.3,0.3-1.7,0.8c-0.4,0.5-0.6,1.3-0.6,2.3v7.2c0,2.2-1,3.8-2.9,4.9
			c2,1.2,2.9,2.8,2.9,5v7.2c0,2,0.7,3.1,2.2,3.1h2.6v2.5h-3.7c-3.3,0-5-1.7-5-5v-7.1c0-1.3-0.4-2.3-1.1-3.1s-1.7-1.2-2.9-1.2h-0.7
			v-2.5h0.7c1.2,0,2.2-0.4,2.9-1.2c0.7-0.8,1.1-1.8,1.1-3.1v-7.1c0-3.3,1.7-5,5-5h3.8L132,37.9L132,37.9z"/>
		<path class="st1" d="M142.7,37.9h3.7c3.3,0,5,1.7,5,5V50c0,1.3,0.4,2.3,1.1,3.1c0.7,0.8,1.7,1.2,2.9,1.2h0.7v2.5h-0.7
			c-1.2,0-2.1,0.4-2.9,1.2c-0.7,0.8-1.1,1.9-1.1,3.1v7.1c0,3.3-1.7,5-5,5h-3.7v-2.5h2.6c1.5,0,2.2-1,2.2-3.1v-7.2c0-2.1,1-3.8,2.9-5
			c-2-1-2.9-2.7-2.9-4.9v-7.2c0-1-0.2-1.7-0.6-2.3c-0.4-0.5-0.9-0.8-1.7-0.8h-2.6v-2.3C142.6,37.9,142.7,37.9,142.7,37.9z"/>
	</g>
	<g>
		<path class="st1" d="M1871.8,45.9v2.9h-3c-0.8,0-1.4,0.3-1.9,0.9c-0.4,0.6-0.7,1.5-0.7,2.6v8.1c0,2.5-1.1,4.3-3.3,5.5
			c2.2,1.3,3.3,3.2,3.3,5.6v8.1c0,2.3,0.8,3.5,2.5,3.5h3V86h-4.2c-3.8,0-5.7-1.9-5.7-5.6v-8c0-1.4-0.4-2.6-1.2-3.5
			c-0.8-0.9-1.9-1.4-3.3-1.4h-0.8v-2.9h0.8c1.4,0,2.5-0.5,3.3-1.4s1.2-2.1,1.2-3.6v-8c0-3.8,1.9-5.6,5.7-5.6L1871.8,45.9
			L1871.8,45.9z"/>
		<path class="st1" d="M1883.9,45.9h4.2c3.8,0,5.7,1.9,5.7,5.6v8c0,1.5,0.4,2.6,1.2,3.6c0.8,0.9,1.9,1.4,3.3,1.4h0.8v2.9h-0.8
			c-1.3,0-2.4,0.5-3.3,1.4c-0.8,0.9-1.2,2.1-1.2,3.5v8c0,3.8-1.9,5.6-5.7,5.6h-4.2V83h3c1.7,0,2.5-1.2,2.5-3.5v-8.1
			c0-2.4,1.1-4.3,3.3-5.6c-2.2-1.2-3.3-3-3.3-5.5v-8.1c0-1.1-0.2-2-0.7-2.6c-0.4-0.6-1.1-0.9-1.9-0.9h-3L1883.9,45.9L1883.9,45.9z"
			/>
	</g>
	<g>
		<path class="st1" d="M1375.8,70.9v2.9h-3c-0.8,0-1.4,0.3-1.9,0.9c-0.4,0.6-0.7,1.5-0.7,2.6v8.1c0,2.5-1.1,4.3-3.3,5.5
			c2.2,1.3,3.3,3.2,3.3,5.6v8.1c0,2.3,0.8,3.5,2.5,3.5h3v2.9h-4.2c-3.8,0-5.7-1.9-5.7-5.6v-8c0-1.4-0.4-2.6-1.2-3.5
			c-0.8-0.9-1.9-1.4-3.3-1.4h-0.8v-2.9h0.8c1.4,0,2.5-0.5,3.3-1.4s1.2-2.1,1.2-3.6v-8c0-3.8,1.9-5.6,5.7-5.6L1375.8,70.9
			L1375.8,70.9z"/>
		<path class="st1" d="M1387.9,70.9h4.2c3.8,0,5.7,1.9,5.7,5.6v8c0,1.5,0.4,2.6,1.2,3.6c0.8,0.9,1.9,1.4,3.3,1.4h0.8v2.9h-0.8
			c-1.3,0-2.4,0.5-3.3,1.4c-0.8,0.9-1.2,2.1-1.2,3.5v8c0,3.8-1.9,5.6-5.7,5.6h-4.2V108h3c1.7,0,2.5-1.2,2.5-3.5v-8.1
			c0-2.4,1.1-4.3,3.3-5.6c-2.2-1.2-3.3-3-3.3-5.5v-8.1c0-1.1-0.2-2-0.7-2.6c-0.4-0.6-1.1-0.9-1.9-0.9h-3L1387.9,70.9L1387.9,70.9z"
			/>
	</g>
</g>
<g id="circuit">
	<line class="st6" x1="406" y1="149.3" x2="820" y2="149.3"/>
	<line class="st6" x1="393.8" y1="141.5" x2="809.9" y2="141.5"/>
	<line class="st6" x1="319.6" y1="16.5" x2="495.8" y2="16.5"/>
	<line class="st6" x1="322.3" y1="24.4" x2="505" y2="24.4"/>
	<line class="st6" x1="263.3" y1="92.5" x2="326.2" y2="20.5"/>
	<path class="st6" d="M396.9-71.2"/>
	<line class="st6" x1="251.5" y1="93.8" x2="335.8" y2="-1.8"/>
	<line class="st6" x1="153.3" y1="109.5" x2="353" y2="109.5"/>
	<line class="st6" x1="142.8" y1="101.7" x2="342.6" y2="101.7"/>
	<line class="st6" x1="132.3" y1="93.8" x2="332.1" y2="93.8"/>
	<line class="st6" x1="64.2" y1="172.4" x2="132.3" y2="95.1"/>
	<line class="st6" x1="73.4" y1="180.3" x2="141.5" y2="103"/>
	<line class="st6" x1="85.2" y1="186.8" x2="153.3" y2="109.5"/>
	<line class="st6" x1="-6.5" y1="188.1" x2="85.8" y2="188.1"/>
	<circle class="st7" cx="84.5" cy="188.1" r="4.6"/>
	<circle class="st7" cx="153.3" cy="109.5" r="4.6"/>
	<circle class="st7" cx="142.8" cy="101.7" r="4.6"/>
	<circle class="st7" cx="133.6" cy="93.8" r="4.6"/>
	<line class="st6" x1="-6.5" y1="180.3" x2="75.4" y2="180.3"/>
	<circle class="st7" cx="74.1" cy="180.3" r="4.6"/>
	<line class="st6" x1="-6.5" y1="172.4" x2="64.9" y2="172.4"/>
	<circle class="st7" cx="63.6" cy="172.4" r="4.6"/>
	<circle class="st7" cx="251.5" cy="93.8" r="4.6"/>
	<circle class="st7" cx="263.3" cy="93.8" r="4.6"/>
	<circle class="st7" cx="320.9" cy="20.5" r="12.4"/>
	<line class="st6" x1="331.4" y1="92.5" x2="406" y2="150"/>
	<circle class="st7" cx="332.7" cy="93.8" r="4.6"/>
	<circle class="st7" cx="342.6" cy="101.7" r="4.6"/>
	<circle class="st7" cx="352.4" cy="109.5" r="4.6"/>
	<circle class="st7" cx="405.6" cy="149.3" r="4.6"/>
	<circle class="st7" cx="395.1" cy="141.5" r="4.6"/>
	<line class="st6" x1="494" y1="17" x2="521" y2="-9"/>
	<line class="st6" x1="503" y1="23" x2="530" y2="-3"/>
	<circle class="st7" cx="502.6" cy="24.3" r="4.6"/>
	<circle class="st7" cx="494.1" cy="16.5" r="4.6"/>
	<circle class="st7" cx="811.6" cy="141.3" r="4.6"/>
	<circle class="st7" cx="819.6" cy="149.3" r="4.6"/>
	<line class="st6" x1="1525" y1="44" x2="1098" y2="44"/>
	<line class="st6" x1="1536.9" y1="54.2" x2="1108.4" y2="54.2"/>
	<line class="st6" x1="1611" y1="178" x2="1434.8" y2="178"/>
	<line class="st6" x1="1608.4" y1="170.1" x2="1425.6" y2="170.1"/>
	<line class="st6" x1="1667.3" y1="102" x2="1604.5" y2="174"/>
	<path class="st6" d="M1533.7,265.7"/>
	<line class="st6" x1="1679.1" y1="100.7" x2="1608.4" y2="181"/>
	<line class="st6" x1="1777.4" y1="85" x2="1577.6" y2="85"/>
	<line class="st6" x1="1787.8" y1="92.8" x2="1588.1" y2="92.8"/>
	<line class="st6" x1="1798.3" y1="100.7" x2="1598.6" y2="100.7"/>
	<line class="st6" x1="1866.4" y1="22.1" x2="1798.3" y2="99.4"/>
	<line class="st6" x1="1857.3" y1="14.2" x2="1789.1" y2="91.5"/>
	<line class="st6" x1="1845.5" y1="7.7" x2="1777.4" y2="85"/>
	<line class="st6" x1="1937.1" y1="6.4" x2="1844.8" y2="6.4"/>
	<circle class="st7" cx="1846.1" cy="6.4" r="4.6"/>
	<circle class="st7" cx="1777.4" cy="85" r="4.6"/>
	<circle class="st7" cx="1787.8" cy="92.8" r="4.6"/>
	<circle class="st7" cx="1797" cy="100.7" r="4.6"/>
	<line class="st6" x1="1937.1" y1="14.2" x2="1855.3" y2="14.2"/>
	<circle class="st7" cx="1856.6" cy="14.2" r="4.6"/>
	<line class="st6" x1="1937.1" y1="22.1" x2="1865.8" y2="22.1"/>
	<circle class="st7" cx="1867.1" cy="22.1" r="4.6"/>
	<circle class="st7" cx="1679.1" cy="100.7" r="4.6"/>
	<circle class="st7" cx="1667.3" cy="100.7" r="4.6"/>
	<circle class="st7" cx="1609.7" cy="174" r="12.4"/>
	<line class="st6" x1="1599.2" y1="102" x2="1524.6" y2="44.5"/>
	<circle class="st7" cx="1597.9" cy="100.7" r="4.6"/>
	<circle class="st7" cx="1588.1" cy="92.8" r="4.6"/>
	<circle class="st7" cx="1578.3" cy="85" r="4.6"/>
	<circle class="st7" cx="1525.1" cy="45.2" r="4.6"/>
	<circle class="st7" cx="1535.6" cy="53" r="4.6"/>
	<circle class="st7" cx="1428.1" cy="170.2" r="4.6"/>
	<circle class="st7" cx="1436.6" cy="178" r="4.6"/>
	<circle class="st7" cx="1106.1" cy="53.2" r="4.6"/>
	<circle class="st7" cx="1098.1" cy="45.2" r="4.6"/>
</g>
<g id="Calque_2_1_">
	<g>
		<rect x="609.8" y="12" class="st8" width="85.8" height="83.8"/>
		<g>
			<path class="st1" d="M666,31v11.7c-12.8-2.1-19.2,8.5-19.2,17s1.1,17,17,17c4.3,0,9.6-2.1,9.6-2.1V31H666z M666,70.4
				c0,0-11.7,2.1-11.7-10.6S665,48,666,49.1V70.4z"/>
			<rect x="631.9" y="31" class="st1" width="7.5" height="45.8"/>
		</g>
	</g>
	<g>
		<rect x="1704.4" y="12.3" class="st8" width="62.6" height="61.1"/>
		<g>
			<path class="st1" d="M1745.4,26.2v8.5c-9.3-1.6-14,6.2-14,12.4s0.8,12.4,12.4,12.4c3.1,0,7-1.6,7-1.6V26.2H1745.4z M1745.4,54.9
				c0,0-8.5,1.6-8.5-7.8s7.8-8.5,8.5-7.8V54.9z"/>
			<rect x="1720.6" y="26.2" class="st1" width="5.4" height="33.4"/>
		</g>
	</g>
	<g>
		<g>
			<path class="st1" d="M210.4,150.5c-2.6,0-3.4,1.3-3.4,2.4c0,1.2,0.6,2,4,3.8c5.1,2.5,6.7,4.8,6.7,8.3c0,5.2-3.9,8-9.3,8
				c-2.8,0-5.2-0.6-6.6-1.4c-0.2-0.1-0.3-0.3-0.3-0.5v-4.8c0-0.3,0.2-0.4,0.4-0.3c2,1.3,4.4,1.9,6.5,1.9c2.6,0,3.6-1.1,3.6-2.5
				c0-1.2-0.7-2.2-4-3.9c-4.6-2.2-6.5-4.4-6.5-8.2c0-4.2,3.3-7.6,8.9-7.6c2.8,0,4.7,0.4,5.8,0.9c0.3,0.2,0.3,0.4,0.3,0.6v4.4
				c0,0.3-0.2,0.4-0.5,0.3C214.6,151.1,212.5,150.5,210.4,150.5L210.4,150.5z"/>
			<path class="st1" d="M185.5,137.1c-3.1,0-6,0.1-8,0.2c-0.2,0-0.7,0.2-0.7,0.4v34.4c0,0.3,0.1,0.4,0.4,0.4h4.7
				c0.3,0,0.4-0.1,0.4-0.4v-12.3c0.8,0,1.2,0.1,2.4,0.1c7,0,12.7-3.5,12.7-11.6C197.4,142,194,137.1,185.5,137.1z M184.9,154.5
				c-1.3,0-1.9,0-2.6-0.1V142c0.6,0,1.8-0.1,3.1-0.1c4.3,0,6.8,2.1,6.8,6.1C192.2,153.2,188.6,154.5,184.9,154.5z"/>
		</g>
		<rect x="163.4" y="122" class="st8" width="67.6" height="66"/>
	</g>
	<g>
		<g>
			<path class="st1" d="M1503.5,106.8c-3.3,0-4.4,1.7-4.4,3c0,1.5,0.7,2.5,5.1,4.8c6.5,3.2,8.6,6.2,8.6,10.6
				c0,6.6-5.1,10.2-11.9,10.2c-3.6,0-6.7-0.7-8.5-1.8c-0.3-0.1-0.3-0.3-0.3-0.7v-6.1c0-0.4,0.2-0.5,0.5-0.3c2.6,1.7,5.6,2.4,8.3,2.4
				c3.3,0,4.6-1.4,4.6-3.2c0-1.5-1-2.8-5.1-5c-5.9-2.8-8.3-5.7-8.3-10.5c0-5.4,4.2-9.8,11.5-9.8c3.6,0,6.1,0.5,7.4,1.2
				c0.3,0.2,0.4,0.5,0.4,0.8v5.7c0,0.3-0.2,0.5-0.6,0.4C1508.9,107.5,1506.2,106.8,1503.5,106.8L1503.5,106.8z"/>
			<path class="st1" d="M1471.6,89.5c-3.9,0-7.7,0.1-10.2,0.2c-0.3,0-0.9,0.2-0.9,0.5v44.1c0,0.4,0.2,0.5,0.5,0.5h6.1
				c0.4,0,0.5-0.2,0.5-0.5v-15.8c1.1,0,1.6,0.1,3.1,0.1c9,0,16.3-4.5,16.3-14.9C1486.9,95.8,1482.6,89.5,1471.6,89.5z M1470.8,111.8
				c-1.6,0-2.4,0-3.3-0.1V95.9c0.7,0,2.3-0.1,3.9-0.1c5.5,0,8.7,2.6,8.7,7.9C1480.2,110.2,1475.7,111.8,1470.8,111.8z"/>
		</g>
		<rect x="1443.3" y="70.2" class="st8" width="86.7" height="84.6"/>
	</g>
	<g>
		<rect x="195.1" y="15.7" class="st8" width="61.9" height="60.4"/>
		<g>
			<g>
				<path class="st1" d="M223.6,29.2h-7.3v2.4l-9.1,32.2h5.5l2.4-9.7h10.3l2.4,9.7h6.1L223.6,29.2z M216.9,48.6l3.6-14.6l3.6,14.6
					H216.9z"/>
			</g>
			<rect x="238.8" y="38.3" class="st1" width="5.5" height="25.5"/>
			<path class="st1" d="M242.9,34.6h-2.7c-1.1,0-2-0.9-2-2V30c0-1.1,0.9-2,2-2h2.7c1.1,0,2,0.9,2,2v2.7
				C244.9,33.7,244,34.6,242.9,34.6z"/>
		</g>
	</g>
	<g>
		<rect x="1821.8" y="106.5" class="st8" width="74.5" height="72.7"/>
		<g>
			<g>
				<path class="st1" d="M1856.1,122.8h-8.8v2.9l-11,38.7h6.6l2.9-11.7h12.4l2.9,11.7h7.3L1856.1,122.8z M1848.1,146.2l4.4-17.5
					l4.4,17.5H1848.1z"/>
			</g>
			<rect x="1874.4" y="133.7" class="st1" width="6.6" height="30.7"/>
			<path class="st1" d="M1879.7,129.4h-4c-1.1,0-2-0.9-2-2v-4c0-1.1,0.9-2,2-2h4c1.1,0,2,0.9,2,2v4
				C1881.7,128.5,1880.8,129.4,1879.7,129.4z"/>
		</g>
	</g>
	<g>
		<g>
			<path class="st1" d="M15.8,8.3c4.3,0,6.2,4.1,6.2,7.9c0,3.9-1.8,7.9-6.2,7.9S9.6,20,9.6,16.2C9.7,12.3,11.5,8.3,15.8,8.3z
				 M15.8,10.7c-2.5,0-3.4,2.6-3.4,5.5s0.9,5.6,3.4,5.6s3.4-2.6,3.4-5.6C19.2,13.3,18.4,10.7,15.8,10.7z"/>
			<path class="st1" d="M29,12l-2.5,2.6L24.9,13l4.4-4.5h2.4v15.4H29V12z"/>
			<path class="st1" d="M42,8.3c4.3,0,6.2,4.1,6.2,7.9c0,3.9-1.8,7.9-6.2,7.9s-6.2-4.1-6.2-7.9C35.9,12.3,37.7,8.3,42,8.3z M42,10.7
				c-2.5,0-3.4,2.6-3.4,5.5s0.9,5.6,3.4,5.6s3.4-2.6,3.4-5.6C45.4,13.3,44.5,10.7,42,10.7z"/>
			<path class="st1" d="M55.2,12l-2.5,2.6L51.1,13l4.4-4.5h2.4v15.4h-2.7V12z"/>
			<path class="st1" d="M65.5,12L63,14.6L61.5,13l4.4-4.5h2.4v15.4h-2.7V12H65.5z"/>
			<path class="st1" d="M78.6,8.3c4.3,0,6.2,4.1,6.2,7.9c0,3.9-1.8,7.9-6.2,7.9s-6.2-4.1-6.2-7.9C72.4,12.3,74.3,8.3,78.6,8.3z
				 M78.6,10.7c-2.5,0-3.4,2.6-3.4,5.5s0.9,5.6,3.4,5.6s3.4-2.6,3.4-5.6C82,13.3,81.1,10.7,78.6,10.7z"/>
			<path class="st1" d="M91.7,12l-2.5,2.6L87.7,13l4.4-4.5h2.4v15.4h-2.7V12H91.7z"/>
			<path class="st1" d="M102.1,12l-2.5,2.6L98,13l4.4-4.5h2.4v15.4h-2.7C102.1,23.9,102.1,12,102.1,12z"/>
		</g>
		<path class="st1" d="M112.5,12l-2.5,2.6l-1.6-1.6l4.4-4.5h2.4v15.4h-2.7C112.5,23.9,112.5,12,112.5,12z"/>
		<path class="st1" d="M125.5,8.3c4.3,0,6.2,4.1,6.2,7.9c0,3.9-1.8,7.9-6.2,7.9c-4.3,0-6.2-4.1-6.2-7.9
			C119.4,12.3,121.2,8.3,125.5,8.3z M125.5,10.7c-2.5,0-3.4,2.6-3.4,5.5s0.9,5.6,3.4,5.6s3.4-2.6,3.4-5.6
			C128.9,13.3,128,10.7,125.5,10.7z"/>
		<path class="st1" d="M141.3,8.3c4.3,0,6.2,4.1,6.2,7.9c0,3.9-1.8,7.9-6.2,7.9c-4.3,0-6.2-4.1-6.2-7.9
			C135.2,12.3,137,8.3,141.3,8.3z M141.3,10.7c-2.5,0-3.4,2.6-3.4,5.5s0.9,5.6,3.4,5.6s3.4-2.6,3.4-5.6
			C144.8,13.3,143.9,10.7,141.3,10.7z"/>
		<path class="st1" d="M157.2,8.3c4.3,0,6.2,4.1,6.2,7.9c0,3.9-1.8,7.9-6.2,7.9S151,20,151,16.2C151,12.3,152.9,8.3,157.2,8.3z
			 M157.2,10.7c-2.5,0-3.4,2.6-3.4,5.5s0.9,5.6,3.4,5.6s3.4-2.6,3.4-5.6C160.6,13.3,159.7,10.7,157.2,10.7z"/>
		<path class="st1" d="M170.3,12l-2.5,2.6l-1.6-1.6l4.4-4.5h2.4v15.4h-2.7L170.3,12L170.3,12z"/>
	</g>
	<g>
		<path class="st1" d="M1222.8,14.7c5.7,0,8.1,5.3,8.1,10.5c0,5.1-2.4,10.5-8.1,10.5s-8.1-5.4-8.1-10.5
			C1214.7,20,1217.1,14.7,1222.8,14.7z M1222.8,17.8c-3.3,0-4.5,3.4-4.5,7.3s1.2,7.3,4.5,7.3s4.5-3.5,4.5-7.3
			C1227.3,21.2,1226.1,17.8,1222.8,17.8z"/>
		<path class="st1" d="M1240.1,19.6l-3.3,3.4l-2.1-2.2l5.8-5.9h3.1v20.3h-3.6L1240.1,19.6L1240.1,19.6z"/>
		<path class="st1" d="M1257.3,14.7c5.7,0,8.1,5.3,8.1,10.5c0,5.1-2.4,10.5-8.1,10.5s-8.1-5.4-8.1-10.5
			C1249.2,20,1251.6,14.7,1257.3,14.7z M1257.3,17.8c-3.3,0-4.5,3.4-4.5,7.3s1.2,7.3,4.5,7.3s4.5-3.5,4.5-7.3
			C1261.8,21.2,1260.6,17.8,1257.3,17.8z"/>
		<path class="st1" d="M1274.7,19.6l-3.3,3.4l-2.1-2.2l5.8-5.9h3.1v20.3h-3.6L1274.7,19.6L1274.7,19.6z"/>
		<path class="st1" d="M1288.3,19.6L1285,23l-2.1-2.2l5.8-5.9h3.1v20.3h-3.6L1288.3,19.6L1288.3,19.6z"/>
		<path class="st1" d="M1305.5,14.7c5.7,0,8.1,5.3,8.1,10.5c0,5.1-2.4,10.5-8.1,10.5s-8.1-5.4-8.1-10.5
			C1297.4,20,1299.9,14.7,1305.5,14.7z M1305.5,17.8c-3.3,0-4.5,3.4-4.5,7.3s1.2,7.3,4.5,7.3s4.5-3.5,4.5-7.3
			C1310,21.2,1308.8,17.8,1305.5,17.8z"/>
		<path class="st1" d="M1322.9,19.6l-3.3,3.4l-2.1-2.2l5.8-5.9h3.1v20.3h-3.6L1322.9,19.6L1322.9,19.6z"/>
		<path class="st1" d="M1336.5,19.6l-3.3,3.4l-2.1-2.2l5.8-5.9h3.1v20.3h-3.6L1336.5,19.6L1336.5,19.6z"/>
		<path class="st1" d="M1350.2,19.6l-3.3,3.4l-2.1-2.2l5.8-5.9h3.1v20.3h-3.6L1350.2,19.6L1350.2,19.6z"/>
		<path class="st1" d="M1367.4,14.7c5.7,0,8.1,5.3,8.1,10.5c0,5.1-2.4,10.5-8.1,10.5s-8.1-5.4-8.1-10.5
			C1359.3,20,1361.7,14.7,1367.4,14.7z M1367.4,17.8c-3.3,0-4.5,3.4-4.5,7.3s1.2,7.3,4.5,7.3s4.5-3.5,4.5-7.3
			C1371.9,21.2,1370.7,17.8,1367.4,17.8z"/>
		<path class="st1" d="M1388.3,14.7c5.7,0,8.1,5.3,8.1,10.5c0,5.1-2.4,10.5-8.1,10.5s-8.1-5.4-8.1-10.5
			C1380.2,20,1382.6,14.7,1388.3,14.7z M1388.3,17.8c-3.3,0-4.5,3.4-4.5,7.3s1.2,7.3,4.5,7.3s4.5-3.5,4.5-7.3
			C1392.8,21.2,1391.6,17.8,1388.3,17.8z"/>
		<path class="st1" d="M1409.1,14.7c5.7,0,8.1,5.3,8.1,10.5c0,5.1-2.4,10.5-8.1,10.5s-8.1-5.4-8.1-10.5
			C1401,20,1403.4,14.7,1409.1,14.7z M1409.1,17.8c-3.3,0-4.5,3.4-4.5,7.3s1.2,7.3,4.5,7.3s4.5-3.5,4.5-7.3
			C1413.6,21.2,1412.4,17.8,1409.1,17.8z"/>
		<path class="st1" d="M1426.4,19.6l-3.3,3.4l-2.1-2.2l5.8-5.9h3.1v20.3h-3.6L1426.4,19.6L1426.4,19.6z"/>
		<path class="st1" d="M1442.5,14.7c5.7,0,8.1,5.3,8.1,10.5c0,5.1-2.4,10.5-8.1,10.5s-8.1-5.4-8.1-10.5
			C1434.4,20,1436.9,14.7,1442.5,14.7z M1442.5,17.8c-3.3,0-4.5,3.4-4.5,7.3s1.2,7.3,4.5,7.3s4.5-3.5,4.5-7.3
			C1447,21.2,1445.8,17.8,1442.5,17.8z"/>
		<path class="st1" d="M1459.9,19.6l-3.3,3.4l-2.1-2.2l5.8-5.9h3.1v20.3h-3.6L1459.9,19.6L1459.9,19.6z"/>
		<path class="st1" d="M1473.5,19.6l-3.3,3.4l-2.1-2.2l5.8-5.9h3.1v20.3h-3.6L1473.5,19.6L1473.5,19.6z"/>
		<path class="st1" d="M1487.2,19.6l-3.3,3.4l-2.1-2.2l5.8-5.9h3.1v20.3h-3.6L1487.2,19.6L1487.2,19.6z"/>
		<path class="st1" d="M1504.4,14.7c5.7,0,8.1,5.3,8.1,10.5c0,5.1-2.4,10.5-8.1,10.5s-8.1-5.4-8.1-10.5
			C1496.3,20,1498.7,14.7,1504.4,14.7z M1504.4,17.8c-3.3,0-4.5,3.4-4.5,7.3s1.2,7.3,4.5,7.3s4.5-3.5,4.5-7.3
			C1508.9,21.2,1507.7,17.8,1504.4,17.8z"/>
	</g>
	<g>
		<path class="st1" d="M432.8,164.7c5.7,0,8.1,5.3,8.1,10.5c0,5.1-2.4,10.5-8.1,10.5s-8.1-5.4-8.1-10.5
			C424.7,170,427.1,164.7,432.8,164.7z M432.8,167.8c-3.3,0-4.5,3.4-4.5,7.3c0,3.9,1.2,7.3,4.5,7.3s4.5-3.5,4.5-7.3
			C437.3,171.2,436.1,167.8,432.8,167.8z"/>
		<path class="st1" d="M450.1,169.6l-3.3,3.4l-2.1-2.2l5.8-5.9h3.1v20.3H450v-15.6H450.1z"/>
		<path class="st1" d="M467.3,164.7c5.7,0,8.1,5.3,8.1,10.5c0,5.1-2.4,10.5-8.1,10.5s-8.1-5.4-8.1-10.5
			C459.2,170,461.6,164.7,467.3,164.7z M467.3,167.8c-3.3,0-4.5,3.4-4.5,7.3c0,3.9,1.2,7.3,4.5,7.3s4.5-3.5,4.5-7.3
			C471.8,171.2,470.6,167.8,467.3,167.8z"/>
		<path class="st1" d="M484.7,169.6l-3.3,3.4l-2.1-2.2l5.8-5.9h3.1v20.3h-3.6v-15.6H484.7z"/>
		<path class="st1" d="M498.3,169.6L495,173l-2.1-2.2l5.8-5.9h3.1v20.3h-3.6v-15.6H498.3z"/>
		<path class="st1" d="M515.5,164.7c5.7,0,8.1,5.3,8.1,10.5c0,5.1-2.4,10.5-8.1,10.5c-5.7,0-8.1-5.4-8.1-10.5
			C507.4,170,509.9,164.7,515.5,164.7z M515.5,167.8c-3.3,0-4.5,3.4-4.5,7.3c0,3.9,1.2,7.3,4.5,7.3s4.5-3.5,4.5-7.3
			C520,171.2,518.8,167.8,515.5,167.8z"/>
		<path class="st1" d="M532.9,169.6l-3.3,3.4l-2.1-2.2l5.8-5.9h3.1v20.3h-3.6L532.9,169.6L532.9,169.6z"/>
		<path class="st1" d="M546.5,169.6l-3.3,3.4l-2.1-2.2l5.8-5.9h3.1v20.3h-3.6L546.5,169.6L546.5,169.6z"/>
		<path class="st1" d="M560.2,169.6l-3.3,3.4l-2.1-2.2l5.8-5.9h3.1v20.3h-3.6L560.2,169.6L560.2,169.6z"/>
		<path class="st1" d="M577.4,164.7c5.7,0,8.1,5.3,8.1,10.5c0,5.1-2.4,10.5-8.1,10.5c-5.7,0-8.1-5.4-8.1-10.5
			C569.3,170,571.7,164.7,577.4,164.7z M577.4,167.8c-3.3,0-4.5,3.4-4.5,7.3c0,3.9,1.2,7.3,4.5,7.3s4.5-3.5,4.5-7.3
			C581.9,171.2,580.7,167.8,577.4,167.8z"/>
		<path class="st1" d="M598.3,164.7c5.7,0,8.1,5.3,8.1,10.5c0,5.1-2.4,10.5-8.1,10.5c-5.7,0-8.1-5.4-8.1-10.5
			C590.2,170,592.6,164.7,598.3,164.7z M598.3,167.8c-3.3,0-4.5,3.4-4.5,7.3c0,3.9,1.2,7.3,4.5,7.3s4.5-3.5,4.5-7.3
			C602.8,171.2,601.6,167.8,598.3,167.8z"/>
		<path class="st1" d="M619.1,164.7c5.7,0,8.1,5.3,8.1,10.5c0,5.1-2.4,10.5-8.1,10.5s-8.1-5.4-8.1-10.5
			C611,170,613.4,164.7,619.1,164.7z M619.1,167.8c-3.3,0-4.5,3.4-4.5,7.3c0,3.9,1.2,7.3,4.5,7.3s4.5-3.5,4.5-7.3
			C623.6,171.2,622.4,167.8,619.1,167.8z"/>
		<path class="st1" d="M636.4,169.6l-3.3,3.4l-2.1-2.2l5.8-5.9h3.1v20.3h-3.6L636.4,169.6L636.4,169.6z"/>
		<path class="st1" d="M652.5,164.7c5.7,0,8.1,5.3,8.1,10.5c0,5.1-2.4,10.5-8.1,10.5c-5.7,0-8.1-5.4-8.1-10.5
			C644.4,170,646.9,164.7,652.5,164.7z M652.5,167.8c-3.3,0-4.5,3.4-4.5,7.3c0,3.9,1.2,7.3,4.5,7.3s4.5-3.5,4.5-7.3
			C657,171.2,655.8,167.8,652.5,167.8z"/>
		<path class="st1" d="M669.9,169.6l-3.3,3.4l-2.1-2.2l5.8-5.9h3.1v20.3h-3.6L669.9,169.6L669.9,169.6z"/>
		<path class="st1" d="M683.5,169.6l-3.3,3.4l-2.1-2.2l5.8-5.9h3.1v20.3h-3.6L683.5,169.6L683.5,169.6z"/>
		<path class="st1" d="M697.2,169.6l-3.3,3.4l-2.1-2.2l5.8-5.9h3.1v20.3h-3.6L697.2,169.6L697.2,169.6z"/>
		<path class="st1" d="M714.4,164.7c5.7,0,8.1,5.3,8.1,10.5c0,5.1-2.4,10.5-8.1,10.5c-5.7,0-8.1-5.4-8.1-10.5
			C706.3,170,708.7,164.7,714.4,164.7z M714.4,167.8c-3.3,0-4.5,3.4-4.5,7.3c0,3.9,1.2,7.3,4.5,7.3s4.5-3.5,4.5-7.3
			C718.9,171.2,717.7,167.8,714.4,167.8z"/>
	</g>
	<g>
		<g>
			<g>
				<path class="st1" d="M426.6,67.9v39.5h6V94.3c0,0,18,1.2,18-14.4S426.6,67.9,426.6,67.9z M432.6,88.3V73.9c0,0,12-1.2,12,7.2
					S432.6,88.3,432.6,88.3z"/>
			</g>
			<path class="st1" d="M462.6,84.7v24h-7.2V81.1c0,0,4.8-3.6,14.4-3.6v7.2C469.8,84.7,465,83.5,462.6,84.7z"/>
		</g>
		<rect x="414.5" y="55" class="st8" width="66.5" height="64.9"/>
	</g>
	<g>
		<path id="path951_1_" class="st1" d="M1295.5,76v89.3l-78-11.6l78,26.3l26-10.8V88.4l0,0l0,0v-1.6L1295.5,76z"/>
		<path id="path887_1_" class="st2" d="M1268.2,91.2l-23.9,23.6l-14.4-10.8l-5.9,2l14.6,14.5L1224,135l5.9,2l14.4-10.8l0,0
			l23.9,23.6l14.3-6.1V97.3L1268.2,91.2z M1268.2,108.1v24.7l-16.4-12.4L1268.2,108.1z"/>
	</g>
</g>
</svg>
